<svg xmlns="http://www.w3.org/2000/svg" width="110mm" height="157.183" viewBox="0 0 110 41.588" shape-rendering="geometricPrecision" text-rendering="geometricPrecision" image-rendering="optimizeQuality" fill-rule="evenodd" clip-rule="evenodd"><defs><style>.fil0,.fil1{fill:#28166f}.fil1{fill-rule:nonzero}</style></defs><g id="Warstwa_x0020_1"><g id="_69657776"><path id="_69660896" class="fil0" d="M89.733.025L77.567 26.717l2.472-.025c2.19-.021 3.756-.139 4.639-.454 1.42-.508 2.685-1.44 3.72-2.777 1.038-1.338 1.735-3.145 2.122-5.401h.653l-.943 10.287H67.722L79.989 1.563h-1.432c-1.408 0-2.33.053-2.779.15a6.2 6.2 0 0 0-2.367 1.07c-.738.532-1.352 1.24-1.841 2.13-.485.888-.868 2.012-1.145 3.37h-.664l.665-8.258h19.307z"/><path id="_69661184" class="fil0" d="M57.17 1.643l.015 8.255.559-.98c.663-.822.872-1.197 1.81-1.677.933-.477 2.34-.637 3.55.495.457.427 1.056 1.408 1.182 2.49.106 1.13-.012 2.023-.396 3.056-.376 1.328-1.601 2.807-2.404 3.612-.402.403-1.258 1.268-2.397 2.022l-1.96 1.296c.007 1.101-.041.387.018 3.302.031 1.488.041 1.937.105 2.334.054.338.125.614.533 1.01.27.263.672.634 1.218.708h1.617v.776H45.628v-.776h.9c.793 0 1.328-.185 1.743-.525.363-.298.525-.575.637-1.115.091-.434.13-.976.133-2.393l.026-18.449c.002-1.58-.015-2.46-.136-2.826-.126-.385-.301-.639-.723-1.01-.371-.325-.913-.463-1.68-.463h-.9V.009H68.5v8.13h-.76c-.13-1.917-.578-3.306-1.309-4.26-.73-.954-1.73-1.588-3.07-1.948-.863-.231-2.636-.294-4.808-.29l-1.383.002zm-4.618 5.27c1.007-.2 2.226.003 3.035 1 .377.464 1.221 1.366 1.602 2.291l-.056 10.004c-1.922-.938-5.413-3.62-6.65-6.365a6.712 6.712 0 0 1-.516-4.019c.241-1.425 1.4-2.674 2.585-2.91z"/><path id="_69659792" class="fil0" d="M28.98 0l10.668 15.235V5.39c0-1.7-.206-2.852-.63-3.45-.577-.81-1.554-1.198-2.916-1.165V0h8.111v.775c-1.038.15-1.738.348-2.09.594-.357.246-.635.642-.835 1.193-.199.55-.296 1.492-.296 2.83V28.98h-.617L23.773 6.059V23.4c0 1.631.322 2.73.968 3.3.647.57 1.386.856 2.216.856h.58v.776h-8.71v-.776c1.353-.01 2.294-.331 2.827-.957.529-.626.797-1.696.797-3.199V3.407l-.528-.754c-.519-.749-.978-1.246-1.377-1.482-.398-.235-.968-.369-1.72-.395L18.828 0H28.98z"/><path id="_69650768" class="fil1" d="M0 33.196h1.717l3.87 4.747v-3.65c0-.388-.045-.632-.131-.727-.117-.13-.298-.196-.547-.196h-.22v-.174h2.204v.174h-.225c-.268 0-.457.081-.569.242-.068.1-.102.326-.102.682v5.333h-.169L1.657 34.53v3.898c0 .388.041.63.125.728.118.13.301.196.547.196h.223v.172H.35v-.172h.22c.27 0 .461-.082.575-.244.068-.099.102-.327.102-.68v-4.401a2.91 2.91 0 0 0-.418-.426 1.545 1.545 0 0 0-.417-.19A1.536 1.536 0 0 0 0 33.37v-.174zm9.749 5.712c-.438.34-.714.536-.827.588a1.251 1.251 0 0 1-.535.118.963.963 0 0 1-.732-.304c-.19-.203-.286-.469-.286-.798 0-.209.046-.389.14-.542.127-.21.349-.41.664-.597.316-.187.841-.413 1.576-.68v-.17c0-.425-.067-.718-.203-.877-.135-.158-.333-.237-.59-.237-.197 0-.353.052-.467.159a.476.476 0 0 0-.177.363l.01.27a.465.465 0 0 1-.11.332.375.375 0 0 1-.287.116.363.363 0 0 1-.284-.12.475.475 0 0 1-.11-.332c0-.267.137-.513.411-.737.274-.223.658-.336 1.154-.336.379 0 .69.063.933.19a.89.89 0 0 1 .406.455c.056.134.083.406.083.82v1.451c0 .408.008.658.024.75.016.091.041.154.076.184a.185.185 0 0 0 .125.048c.05 0 .094-.012.13-.034.066-.04.191-.154.378-.34v.26c-.347.467-.68.701-.999.701a.452.452 0 0 1-.363-.159c-.091-.105-.137-.287-.14-.542zm0-.302v-1.63c-.47.188-.773.32-.91.397-.247.137-.422.28-.527.43a.825.825 0 0 0-.16.49.8.8 0 0 0 .201.558.613.613 0 0 0 .462.221c.237 0 .548-.156.934-.466zm3.07-3.482v.962c.358-.642.726-.962 1.102-.962.17 0 .312.052.425.156a.486.486 0 0 1 .167.361.43.43 0 0 1-.121.31.386.386 0 0 1-.29.125c-.108 0-.23-.054-.366-.16-.136-.108-.236-.162-.301-.162-.056 0-.117.03-.182.093-.14.127-.285.337-.433.63v2.05c0 .235.029.415.088.536a.49.49 0 0 0 .215.21c.103.056.25.085.442.085v.167h-2.188v-.167c.218 0 .38-.035.485-.104a.4.4 0 0 0 .165-.237c.014-.055.022-.204.022-.454v-1.657c0-.497-.01-.793-.03-.889a.343.343 0 0 0-.112-.207.319.319 0 0 0-.204-.065.946.946 0 0 0-.327.07l-.046-.169 1.294-.522h.196zm4.023 0c.647 0 1.166.247 1.56.737.332.42.498.903.498 1.447 0 .383-.092.77-.276 1.162-.183.392-.436.688-.758.888-.322.199-.68.298-1.075.298-.645 0-1.156-.257-1.536-.77a2.391 2.391 0 0 1-.48-1.456c0-.393.096-.782.29-1.17.195-.386.452-.673.769-.858a1.957 1.957 0 0 1 1.008-.278zm-.145.304a.97.97 0 0 0-.497.146c-.166.1-.301.27-.403.516-.104.246-.155.561-.155.947 0 .623.125 1.16.372 1.61.247.45.573.677.978.677.3 0 .55-.124.747-.372.196-.25.293-.678.293-1.285 0-.76-.163-1.357-.49-1.792-.22-.299-.502-.447-.845-.447zm5.853 3.616a2.166 2.166 0 0 1-.612.47 1.49 1.49 0 0 1-.644.142c-.467 0-.874-.196-1.223-.587-.348-.39-.523-.892-.523-1.503 0-.614.193-1.174.58-1.684.386-.508.881-.763 1.488-.763.376 0 .688.12.933.36v-.789c0-.489-.01-.788-.035-.901-.024-.112-.06-.188-.11-.228a.279.279 0 0 0-.186-.06.953.953 0 0 0-.322.074l-.06-.164 1.274-.522h.209v4.943c0 .5.012.806.035.916.024.11.06.187.113.23a.263.263 0 0 0 .178.066.981.981 0 0 0 .337-.08l.052.164-1.27.528h-.215v-.612zm0-.327v-2.203a1.516 1.516 0 0 0-.168-.578.975.975 0 0 0-.37-.393.9.9 0 0 0-.452-.134c-.274 0-.518.122-.733.368-.283.325-.425.796-.425 1.419 0 .63.137 1.11.411 1.445.274.334.578.502.914.502.284 0 .558-.142.822-.426zm3.85-3.593c.646 0 1.166.247 1.559.737.333.42.499.903.499 1.447 0 .383-.093.77-.276 1.162-.183.392-.437.688-.758.888-.322.199-.68.298-1.075.298-.645 0-1.157-.257-1.536-.77a2.391 2.391 0 0 1-.481-1.456c0-.393.097-.782.291-1.17.195-.386.451-.673.768-.858a1.956 1.956 0 0 1 1.009-.278zm-.145.304a.97.97 0 0 0-.497.146c-.166.1-.301.27-.403.516-.104.246-.155.561-.155.947 0 .623.124 1.16.371 1.61.247.45.574.677.978.677.301 0 .55-.124.747-.372.196-.25.294-.678.294-1.285 0-.76-.163-1.357-.491-1.792-.22-.299-.502-.447-.844-.447zm2.595-.179h1.792v.174c-.164.013-.273.041-.325.088a.261.261 0 0 0-.077.2c0 .098.027.214.08.35l.914 2.46.92-2.002-.243-.63c-.075-.186-.172-.315-.294-.386-.069-.045-.196-.07-.383-.08v-.174h2.036v.174c-.225.01-.384.05-.476.121-.062.05-.094.13-.094.237a.52.52 0 0 0 .038.192l.97 2.456.9-2.367c.062-.167.094-.301.094-.402 0-.059-.03-.111-.09-.157-.061-.048-.18-.074-.358-.08v-.174h1.348v.174c-.27.04-.47.223-.597.55l-1.428 3.682h-.19l-1.07-2.73-1.245 2.73h-.174l-1.372-3.593c-.09-.226-.178-.38-.266-.459-.087-.08-.224-.14-.41-.18v-.174zm6.897 0h1.993v.174h-.098c-.14 0-.245.03-.315.09a.285.285 0 0 0-.105.227c0 .121.051.29.154.503l1.04 2.157.958-2.36a.998.998 0 0 0 .078-.38.212.212 0 0 0-.032-.125.264.264 0 0 0-.116-.082.878.878 0 0 0-.28-.03v-.174h1.39v.174a.655.655 0 0 0-.266.075.76.76 0 0 0-.205.21 2.767 2.767 0 0 0-.16.359l-1.739 4.265c-.169.415-.389.727-.661.939-.273.212-.534.317-.787.317a.648.648 0 0 1-.452-.16.475.475 0 0 1-.177-.363c0-.13.043-.236.127-.315a.5.5 0 0 1 .354-.12c.102 0 .242.035.419.104.124.046.202.07.234.07.092 0 .194-.05.306-.145.11-.097.221-.283.333-.56l.304-.741-1.536-3.226a2.605 2.605 0 0 0-.224-.359 1.038 1.038 0 0 0-.192-.22 1.046 1.046 0 0 0-.345-.13v-.174zm9.068-1.707v2.488h1.152c.265 0 .459-.059.582-.175.122-.117.203-.347.245-.693h.172v2.14h-.172c-.003-.244-.035-.424-.096-.54a.596.596 0 0 0-.253-.259c-.107-.057-.266-.086-.478-.086h-1.151v1.988c0 .32.019.532.06.634.03.078.096.145.196.2a.882.882 0 0 0 .428.114h.23v.172h-2.716v-.172h.223c.261 0 .452-.077.57-.23.075-.098.112-.339.112-.718v-4.089c0-.32-.021-.532-.06-.634a.426.426 0 0 0-.192-.2.865.865 0 0 0-.43-.112h-.223v-.174h4.709l.06 1.39h-.164c-.08-.294-.175-.51-.282-.65a.918.918 0 0 0-.397-.3c-.157-.062-.4-.094-.729-.094h-1.395zm7.406 1.707v2.59c0 .496.011.799.035.909.024.11.06.187.112.23a.267.267 0 0 0 .18.066.808.808 0 0 0 .326-.08l.066.164-1.28.528h-.208v-.905c-.368.398-.649.648-.841.75a1.273 1.273 0 0 1-.61.155.98.98 0 0 1-.625-.208 1.079 1.079 0 0 1-.366-.535c-.069-.218-.102-.525-.102-.924v-1.908c0-.202-.023-.343-.065-.42a.435.435 0 0 0-.195-.18c-.084-.042-.24-.061-.463-.058v-.174h1.497v2.861c0 .399.07.66.209.784a.719.719 0 0 0 .501.188c.134 0 .285-.043.454-.126.17-.084.372-.245.606-.48v-2.424c0-.242-.045-.406-.134-.492-.09-.084-.272-.13-.553-.137v-.174h1.456zm2.278.78c.5-.603.978-.905 1.432-.905.234 0 .435.058.602.175.169.116.303.309.402.576.068.187.102.474.102.86v1.825c0 .269.022.454.067.55a.382.382 0 0 0 .165.182c.075.043.217.066.422.066v.167h-2.115v-.167h.09c.198 0 .338-.032.416-.093.08-.06.136-.15.166-.268.013-.046.02-.192.02-.437v-1.751c0-.389-.052-.67-.152-.848-.102-.175-.272-.262-.511-.262-.37 0-.74.202-1.106.606v2.255c0 .288.016.466.051.535.043.09.103.157.18.199.076.041.23.064.463.064v.167H53.08v-.167h.094c.216 0 .364-.056.44-.166.076-.112.114-.322.114-.632v-1.59c0-.512-.011-.825-.035-.936-.022-.113-.059-.19-.107-.23a.295.295 0 0 0-.194-.06.913.913 0 0 0-.312.07l-.07-.169 1.288-.522h.2v.906zm6.552 3.015a2.165 2.165 0 0 1-.612.47c-.2.094-.414.141-.643.141-.467 0-.875-.195-1.224-.586-.347-.39-.522-.892-.522-1.504 0-.613.192-1.173.58-1.683.385-.508.88-.763 1.487-.763.376 0 .688.12.934.36v-.789c0-.489-.012-.788-.035-.901-.024-.112-.06-.188-.11-.228a.28.28 0 0 0-.187-.06.954.954 0 0 0-.321.074l-.061-.164 1.274-.522h.21v4.942c0 .5.012.807.034.916.024.112.06.188.113.231a.263.263 0 0 0 .179.066.981.981 0 0 0 .336-.08l.052.164-1.27.527h-.214v-.611zm0-.327v-2.203a1.513 1.513 0 0 0-.168-.578.974.974 0 0 0-.37-.393.9.9 0 0 0-.451-.134c-.275 0-.518.122-.733.368-.284.325-.426.796-.426 1.419 0 .63.137 1.11.411 1.445.274.334.579.502.915.502.283 0 .557-.142.822-.426zm5.507-3.468v2.59c0 .496.01.799.035.908.023.112.06.188.111.231a.267.267 0 0 0 .18.066.807.807 0 0 0 .327-.08l.065.164-1.28.527h-.208v-.904c-.368.398-.648.648-.84.75a1.272 1.272 0 0 1-.611.155.98.98 0 0 1-.625-.208 1.079 1.079 0 0 1-.366-.535c-.068-.218-.102-.525-.102-.924v-1.908c0-.202-.022-.343-.065-.42a.435.435 0 0 0-.194-.18c-.085-.042-.24-.061-.464-.058v-.174h1.497v2.861c0 .399.07.66.209.784a.72.72 0 0 0 .502.188c.134 0 .285-.043.454-.126.17-.084.371-.245.605-.48v-2.424c0-.242-.045-.406-.134-.492-.089-.084-.272-.13-.552-.137v-.174h1.456zm3.794-.125v1.455h-.155c-.118-.457-.269-.767-.454-.933a1.031 1.031 0 0 0-.707-.247c-.218 0-.393.057-.527.174-.134.115-.2.242-.2.382 0 .174.049.323.147.448.097.127.293.263.59.406l.68.331c.632.308.948.714.948 1.219 0 .388-.147.7-.442.94a1.529 1.529 0 0 1-.986.357c-.262 0-.56-.047-.896-.14a.93.93 0 0 0-.252-.047c-.072 0-.128.04-.169.121h-.153v-1.526h.153c.087.435.255.763.5.985a1.2 1.2 0 0 0 .825.33c.215 0 .39-.061.526-.187a.603.603 0 0 0 .202-.456.723.723 0 0 0-.226-.541c-.15-.147-.45-.331-.903-.556-.451-.223-.746-.426-.886-.605a1.053 1.053 0 0 1-.21-.673c0-.352.121-.646.361-.882.241-.236.553-.355.936-.355.169 0 .372.036.611.108.16.046.265.07.317.07.051 0 .09-.011.118-.033a.455.455 0 0 0 .097-.145h.155zm4.672 3.09l-.053 1.31h-3.77v-.166l2.837-3.782h-1.4c-.301 0-.499.02-.593.059a.478.478 0 0 0-.228.221 1.368 1.368 0 0 0-.145.58h-.186l.027-1.187h3.584v.174l-2.864 3.79h1.558c.326 0 .548-.027.666-.083a.617.617 0 0 0 .282-.287c.05-.099.09-.309.126-.63h.159zm8.114-5.018l-4.157 5.946h2.595c.398 0 .704-.087.916-.26.213-.176.403-.528.567-1.06l.154.027-.298 1.676h-5.153v-.172l4.06-5.778h-2.024c-.336 0-.58.037-.731.109a.78.78 0 0 0-.346.318c-.08.139-.151.397-.217.776h-.176l.13-1.582h4.68zm3.66 5.848a2.166 2.166 0 0 1-.612.47 1.49 1.49 0 0 1-.644.141c-.467 0-.874-.195-1.223-.586-.348-.39-.523-.892-.523-1.504 0-.613.193-1.173.58-1.683.386-.508.881-.763 1.488-.763.376 0 .688.12.933.36v-.789c0-.489-.01-.788-.035-.901-.024-.112-.06-.188-.11-.228a.28.28 0 0 0-.186-.06.953.953 0 0 0-.322.074l-.06-.164 1.274-.522h.209v4.942c0 .5.012.807.035.916.024.112.06.188.113.231a.263.263 0 0 0 .178.066.981.981 0 0 0 .336-.08l.053.164-1.27.527h-.215v-.611zm0-.327v-2.203a1.516 1.516 0 0 0-.168-.578.975.975 0 0 0-.371-.393.9.9 0 0 0-.45-.134c-.275 0-.519.122-.734.368-.283.325-.425.796-.425 1.419 0 .63.137 1.11.411 1.445.274.334.578.501.914.501.284 0 .558-.141.822-.425zm3.01-3.593v.962c.357-.642.725-.962 1.1-.962.171 0 .313.052.426.156a.486.486 0 0 1 .167.361c0 .123-.04.225-.12.31a.386.386 0 0 1-.29.125c-.109 0-.232-.054-.367-.16-.136-.108-.236-.162-.301-.162-.056 0-.117.03-.182.093-.14.127-.285.337-.433.63v2.05c0 .235.029.415.088.536a.49.49 0 0 0 .215.21c.103.056.25.085.442.085v.167h-2.188v-.167c.218 0 .38-.035.486-.104a.401.401 0 0 0 .164-.237c.014-.055.022-.204.022-.454v-1.657c0-.497-.01-.793-.03-.889a.343.343 0 0 0-.112-.207.319.319 0 0 0-.204-.065.946.946 0 0 0-.326.07l-.046-.169 1.293-.522h.196zm4.022 0c.647 0 1.166.246 1.56.737.333.42.498.903.498 1.446 0 .384-.092.771-.275 1.163-.184.392-.437.688-.759.888a2 2 0 0 1-1.075.297c-.645 0-1.156-.256-1.535-.769a2.391 2.391 0 0 1-.481-1.456c0-.393.097-.782.291-1.17.194-.386.45-.673.768-.858a1.957 1.957 0 0 1 1.008-.278zm-.145.304a.97.97 0 0 0-.497.146c-.165.1-.3.27-.403.516-.103.246-.154.561-.154.947 0 .622.124 1.16.37 1.61.248.45.574.677.979.677.3 0 .55-.124.747-.373.196-.25.293-.677.293-1.284 0-.76-.162-1.357-.49-1.792-.22-.299-.502-.447-.845-.447zm2.595-.179h1.792v.174c-.164.013-.272.041-.325.088a.261.261 0 0 0-.076.2c0 .097.027.214.08.35l.914 2.46.919-2.002-.242-.63c-.075-.186-.172-.315-.295-.386-.068-.045-.196-.07-.382-.08v-.174h2.035v.174c-.224.01-.383.05-.476.121-.062.05-.094.13-.094.237 0 .062.013.126.038.192l.97 2.456.9-2.367c.063-.167.095-.301.095-.402 0-.059-.03-.111-.091-.157-.06-.048-.18-.074-.357-.08v-.174h1.347v.174c-.27.04-.47.223-.597.55l-1.427 3.682h-.191l-1.07-2.73-1.245 2.73h-.173l-1.372-3.593c-.09-.226-.178-.38-.266-.459-.088-.08-.225-.14-.41-.18v-.174zm8.227-2.36a.46.46 0 0 1 .335.137c.09.092.137.204.137.334 0 .13-.046.242-.137.336a.458.458 0 0 1-.335.14.464.464 0 0 1-.336-.14.464.464 0 0 1-.14-.336c0-.13.046-.242.139-.334a.46.46 0 0 1 .337-.137zm.387 2.235v3.436c0 .267.02.444.06.533.038.09.095.155.172.2.076.042.216.065.419.065v.167h-2.078v-.167c.21 0 .35-.021.42-.063a.408.408 0 0 0 .17-.2c.043-.093.063-.271.063-.535v-1.65c0-.463-.014-.762-.041-.9-.022-.1-.057-.168-.104-.206a.283.283 0 0 0-.19-.06.944.944 0 0 0-.318.07l-.065-.168 1.287-.522h.205zm3.604 3.784c-.438.34-.714.536-.827.588a1.251 1.251 0 0 1-.535.118.963.963 0 0 1-.731-.304c-.191-.203-.287-.469-.287-.798 0-.209.046-.389.14-.542.128-.21.35-.41.664-.597.316-.187.841-.413 1.576-.68v-.17c0-.425-.067-.718-.202-.877-.136-.158-.333-.237-.591-.237-.196 0-.352.052-.467.159a.476.476 0 0 0-.177.363l.01.27a.465.465 0 0 1-.11.332.375.375 0 0 1-.287.116.363.363 0 0 1-.284-.12.475.475 0 0 1-.11-.332c0-.267.138-.513.412-.737.274-.223.657-.336 1.153-.336.379 0 .69.063.933.19a.889.889 0 0 1 .406.455c.056.133.083.406.083.82v1.451c0 .408.008.658.024.75.016.091.042.153.077.184a.185.185 0 0 0 .124.047c.05 0 .094-.01.13-.033.066-.04.192-.154.378-.34v.26c-.347.467-.68.701-.999.701a.452.452 0 0 1-.363-.159c-.09-.105-.137-.287-.14-.542zm0-.302v-1.63c-.47.188-.773.32-.91.397-.247.137-.422.28-.527.43a.825.825 0 0 0-.16.49c0 .224.068.41.201.558a.613.613 0 0 0 .463.221c.237 0 .547-.156.933-.466z"/></g></g></svg>